<mxfile host="65bd71144e">
    <diagram id="xsO1B5-NOSfHuKZP-OwU" name="ページ1">
        <mxGraphModel dx="1180" dy="1807" grid="1" gridSize="10" guides="1" tooltips="1" connect="1" arrows="1" fold="1" page="1" pageScale="1" pageWidth="827" pageHeight="1169" background="#ffffff" math="0" shadow="1">
            <root>
                <mxCell id="0"/>
                <mxCell id="1" parent="0"/>
                <mxCell id="171" style="edgeStyle=orthogonalEdgeStyle;html=1;exitX=0.5;exitY=1;exitDx=0;exitDy=0;entryX=0.5;entryY=0;entryDx=0;entryDy=0;" parent="1" source="161" target="172" edge="1">
                    <mxGeometry relative="1" as="geometry"/>
                </mxCell>
                <mxCell id="161" value="サーバーサイド" style="swimlane;fillStyle=auto;swimlaneFillColor=none;opacity=70;" parent="1" vertex="1">
                    <mxGeometry x="493.5" y="-440" width="780" height="200" as="geometry"/>
                </mxCell>
                <mxCell id="199" value="" style="group" parent="161" vertex="1" connectable="0">
                    <mxGeometry x="49.88" y="80" width="680.25" height="40" as="geometry"/>
                </mxCell>
                <mxCell id="170" value="" style="group" parent="199" vertex="1" connectable="0">
                    <mxGeometry width="440" height="40" as="geometry"/>
                </mxCell>
                <mxCell id="73" value="Text" style="rounded=0;whiteSpace=wrap;html=1;" parent="170" vertex="1">
                    <mxGeometry width="90" height="40" as="geometry"/>
                </mxCell>
                <mxCell id="167" value="画像" style="rounded=0;whiteSpace=wrap;html=1;" parent="170" vertex="1">
                    <mxGeometry x="115" width="90" height="40" as="geometry"/>
                </mxCell>
                <mxCell id="168" value="動画" style="rounded=0;whiteSpace=wrap;html=1;" parent="170" vertex="1">
                    <mxGeometry x="230" width="90" height="40" as="geometry"/>
                </mxCell>
                <mxCell id="169" value="音声" style="rounded=0;whiteSpace=wrap;html=1;" parent="170" vertex="1">
                    <mxGeometry x="350" width="90" height="40" as="geometry"/>
                </mxCell>
                <mxCell id="196" value="DOM" style="rounded=0;whiteSpace=wrap;html=1;" parent="199" vertex="1">
                    <mxGeometry x="469.75" width="90" height="40" as="geometry"/>
                </mxCell>
                <mxCell id="197" value="アルゴリズム" style="rounded=0;whiteSpace=wrap;html=1;" parent="199" vertex="1">
                    <mxGeometry x="590.25" width="90" height="40" as="geometry"/>
                </mxCell>
                <mxCell id="172" value="クライアントサイド" style="swimlane;startSize=23;" parent="1" vertex="1">
                    <mxGeometry x="317" y="-120" width="1133" height="1010" as="geometry">
                        <mxRectangle x="307" y="-120" width="150" height="30" as="alternateBounds"/>
                    </mxGeometry>
                </mxCell>
                <mxCell id="63" value="Textをアニメーションデータに変換" style="swimlane;" parent="172" vertex="1">
                    <mxGeometry x="206.5" y="80" width="720" height="390" as="geometry"/>
                </mxCell>
                <mxCell id="158" value="" style="group" parent="63" vertex="1" connectable="0">
                    <mxGeometry x="39.75" y="60" width="640.5" height="290" as="geometry"/>
                </mxCell>
                <mxCell id="74" value="アニメーション" style="rounded=0;whiteSpace=wrap;html=1;" parent="158" vertex="1">
                    <mxGeometry y="110" width="90" height="40" as="geometry"/>
                </mxCell>
                <mxCell id="76" value="動画" style="rounded=0;whiteSpace=wrap;html=1;" parent="158" vertex="1">
                    <mxGeometry x="110" y="110" width="90" height="40" as="geometry"/>
                </mxCell>
                <mxCell id="79" value="画像" style="rounded=0;whiteSpace=wrap;html=1;" parent="158" vertex="1">
                    <mxGeometry x="220" y="110" width="90" height="40" as="geometry"/>
                </mxCell>
                <mxCell id="85" value="音声" style="rounded=0;whiteSpace=wrap;html=1;" parent="158" vertex="1">
                    <mxGeometry x="330" y="110" width="90" height="40" as="geometry"/>
                </mxCell>
                <mxCell id="107" style="edgeStyle=orthogonalEdgeStyle;html=1;exitX=0.5;exitY=1;exitDx=0;exitDy=0;entryX=0.5;entryY=0;entryDx=0;entryDy=0;" parent="158" source="103" target="74" edge="1">
                    <mxGeometry relative="1" as="geometry"/>
                </mxCell>
                <mxCell id="108" style="edgeStyle=orthogonalEdgeStyle;html=1;exitX=0.5;exitY=1;exitDx=0;exitDy=0;entryX=0.5;entryY=0;entryDx=0;entryDy=0;" parent="158" source="103" target="76" edge="1">
                    <mxGeometry relative="1" as="geometry"/>
                </mxCell>
                <mxCell id="109" style="edgeStyle=orthogonalEdgeStyle;html=1;entryX=0.5;entryY=0;entryDx=0;entryDy=0;exitX=0.5;exitY=1;exitDx=0;exitDy=0;" parent="158" source="103" target="79" edge="1">
                    <mxGeometry relative="1" as="geometry"/>
                </mxCell>
                <mxCell id="110" style="edgeStyle=orthogonalEdgeStyle;html=1;exitX=0.5;exitY=1;exitDx=0;exitDy=0;entryX=0.5;entryY=0;entryDx=0;entryDy=0;" parent="158" source="103" target="85" edge="1">
                    <mxGeometry relative="1" as="geometry"/>
                </mxCell>
                <mxCell id="103" value="独自エンジン" style="rounded=0;whiteSpace=wrap;html=1;" parent="158" vertex="1">
                    <mxGeometry x="275.5" width="90" height="40" as="geometry"/>
                </mxCell>
                <mxCell id="95" value="2D/3Dデータ" style="rounded=0;whiteSpace=wrap;html=1;" parent="158" vertex="1">
                    <mxGeometry x="440" y="110" width="90" height="40" as="geometry"/>
                </mxCell>
                <mxCell id="111" style="edgeStyle=orthogonalEdgeStyle;html=1;exitX=0.5;exitY=1;exitDx=0;exitDy=0;entryX=0.5;entryY=0;entryDx=0;entryDy=0;" parent="158" source="103" target="95" edge="1">
                    <mxGeometry relative="1" as="geometry"/>
                </mxCell>
                <mxCell id="112" value="独自データ形式" style="rounded=0;whiteSpace=wrap;html=1;" parent="158" vertex="1">
                    <mxGeometry x="252.75" y="220" width="135.5" height="70" as="geometry"/>
                </mxCell>
                <mxCell id="117" style="edgeStyle=orthogonalEdgeStyle;html=1;exitX=0.5;exitY=1;exitDx=0;exitDy=0;entryX=0.5;entryY=0;entryDx=0;entryDy=0;" parent="158" source="74" target="112" edge="1">
                    <mxGeometry relative="1" as="geometry"/>
                </mxCell>
                <mxCell id="114" style="edgeStyle=orthogonalEdgeStyle;html=1;exitX=0.5;exitY=1;exitDx=0;exitDy=0;entryX=0.5;entryY=0;entryDx=0;entryDy=0;" parent="158" source="76" target="112" edge="1">
                    <mxGeometry relative="1" as="geometry"/>
                </mxCell>
                <mxCell id="113" value="" style="edgeStyle=orthogonalEdgeStyle;html=1;" parent="158" source="79" target="112" edge="1">
                    <mxGeometry relative="1" as="geometry"/>
                </mxCell>
                <mxCell id="115" style="edgeStyle=orthogonalEdgeStyle;html=1;exitX=0.5;exitY=1;exitDx=0;exitDy=0;entryX=0.5;entryY=0;entryDx=0;entryDy=0;" parent="158" source="85" target="112" edge="1">
                    <mxGeometry relative="1" as="geometry"/>
                </mxCell>
                <mxCell id="116" style="edgeStyle=orthogonalEdgeStyle;html=1;exitX=0.5;exitY=1;exitDx=0;exitDy=0;entryX=0.5;entryY=0;entryDx=0;entryDy=0;" parent="158" source="95" target="112" edge="1">
                    <mxGeometry relative="1" as="geometry"/>
                </mxCell>
                <mxCell id="126" value="数式" style="rounded=0;whiteSpace=wrap;html=1;" parent="158" vertex="1">
                    <mxGeometry x="550.5" y="110" width="90" height="40" as="geometry"/>
                </mxCell>
                <mxCell id="128" style="edgeStyle=orthogonalEdgeStyle;html=1;exitX=0.5;exitY=1;exitDx=0;exitDy=0;entryX=0.5;entryY=0;entryDx=0;entryDy=0;" parent="158" source="126" target="112" edge="1">
                    <mxGeometry relative="1" as="geometry"/>
                </mxCell>
                <mxCell id="129" style="edgeStyle=orthogonalEdgeStyle;html=1;exitX=0.5;exitY=1;exitDx=0;exitDy=0;entryX=0.5;entryY=0;entryDx=0;entryDy=0;" parent="158" source="103" target="126" edge="1">
                    <mxGeometry relative="1" as="geometry"/>
                </mxCell>
                <mxCell id="174" value="アニメーションデータからレンダリング" style="swimlane;" parent="172" vertex="1">
                    <mxGeometry x="206.5" y="540" width="720" height="390" as="geometry"/>
                </mxCell>
                <mxCell id="175" value="" style="group" parent="174" vertex="1" connectable="0">
                    <mxGeometry x="26.369999999999997" y="60" width="640.5" height="290" as="geometry"/>
                </mxCell>
                <mxCell id="204" style="edgeStyle=orthogonalEdgeStyle;html=1;exitX=0.5;exitY=1;exitDx=0;exitDy=0;entryX=0.5;entryY=0;entryDx=0;entryDy=0;" parent="175" source="176" target="187" edge="1">
                    <mxGeometry relative="1" as="geometry"/>
                </mxCell>
                <mxCell id="176" value="Canvas" style="rounded=0;whiteSpace=wrap;html=1;" parent="175" vertex="1">
                    <mxGeometry x="155.25" y="110" width="90" height="40" as="geometry"/>
                </mxCell>
                <mxCell id="201" style="edgeStyle=orthogonalEdgeStyle;html=1;exitX=0.5;exitY=1;exitDx=0;exitDy=0;entryX=0.5;entryY=0;entryDx=0;entryDy=0;" parent="175" source="184" target="176" edge="1">
                    <mxGeometry relative="1" as="geometry"/>
                </mxCell>
                <mxCell id="202" style="edgeStyle=orthogonalEdgeStyle;html=1;exitX=0.5;exitY=1;exitDx=0;exitDy=0;entryX=0.5;entryY=0;entryDx=0;entryDy=0;" parent="175" source="184" target="193" edge="1">
                    <mxGeometry relative="1" as="geometry"/>
                </mxCell>
                <mxCell id="203" style="edgeStyle=orthogonalEdgeStyle;html=1;exitX=0.5;exitY=1;exitDx=0;exitDy=0;entryX=0.5;entryY=0;entryDx=0;entryDy=0;" parent="175" source="184" target="200" edge="1">
                    <mxGeometry relative="1" as="geometry"/>
                </mxCell>
                <mxCell id="184" value="独自データ形式" style="rounded=0;whiteSpace=wrap;html=1;" parent="175" vertex="1">
                    <mxGeometry x="273.75" width="90" height="40" as="geometry"/>
                </mxCell>
                <mxCell id="187" value="画面にレンダリング" style="rounded=0;whiteSpace=wrap;html=1;" parent="175" vertex="1">
                    <mxGeometry x="251" y="220" width="135.5" height="70" as="geometry"/>
                </mxCell>
                <mxCell id="193" value="DOM" style="rounded=0;whiteSpace=wrap;html=1;" parent="175" vertex="1">
                    <mxGeometry x="273.75" y="110" width="90" height="40" as="geometry"/>
                </mxCell>
                <mxCell id="207" style="edgeStyle=orthogonalEdgeStyle;html=1;exitX=0.5;exitY=1;exitDx=0;exitDy=0;entryX=0.5;entryY=0;entryDx=0;entryDy=0;" parent="175" source="200" target="187" edge="1">
                    <mxGeometry relative="1" as="geometry"/>
                </mxCell>
                <mxCell id="200" value="アルゴリズム" style="rounded=0;whiteSpace=wrap;html=1;" parent="175" vertex="1">
                    <mxGeometry x="395.25" y="110" width="90" height="40" as="geometry"/>
                </mxCell>
                <mxCell id="205" style="edgeStyle=orthogonalEdgeStyle;html=1;exitX=0.5;exitY=1;exitDx=0;exitDy=0;entryX=0.5;entryY=0;entryDx=0;entryDy=0;" parent="175" source="193" target="187" edge="1">
                    <mxGeometry relative="1" as="geometry">
                        <mxPoint x="343.75" y="219.99999999999955" as="targetPoint"/>
                    </mxGeometry>
                </mxCell>
            </root>
        </mxGraphModel>
    </diagram>
</mxfile>